<svg xmlns="http://www.w3.org/2000/svg" viewBox="0 0 96 96" role="img" aria-labelledby="title desc">
  <title id="title">Book Circle</title>
  <desc id="desc">An open blue and teal book enclosed by a circular learning-path emblem.</desc>
  <path d="M78 22a40 40 0 1 0 9 40" fill="none" stroke="#2563eb" stroke-width="5" stroke-linecap="round"/>
  <path d="M85 28a40 40 0 0 1 3 26" fill="none" stroke="#14b8a6" stroke-width="5" stroke-linecap="round"/>
  <path d="M22 34c9-1 17 2 23 7v29c-7-5-14-7-23-6z" fill="#2563eb"/>
  <path d="M74 34c-9-1-17 2-23 7v29c7-5 14-7 23-6z" fill="#14b8a6"/>
  <path d="M30 45c3 0 5 2 7 3m-7 6c3 0 5 2 7 3m22-9c2-1 4-3 7-3m-7 12c2-1 4-3 7-3" fill="none" stroke="#fff" stroke-width="3" stroke-linecap="round"/>
  <path d="m48 16 3 6 6 3-6 3-3 6-3-6-6-3 6-3z" fill="#14b8a6"/>
</svg>
